<svg xmlns="http://www.w3.org/2000/svg" width="24" height="24" viewBox="0 0 24 24"><defs><linearGradient id="xd1cc" x1=".81" x2=".81" y1="0" y2="329.79" gradientUnits="userSpaceOnUse"><stop offset="0"/><stop offset="0" stop-color="#8fbddd"/><stop offset=".1" stop-color="#8fbddd"/><stop offset=".2" stop-color="#8fbede"/><stop offset=".3" stop-color="#8fbede"/><stop offset=".4" stop-color="#8fbedf"/><stop offset=".5" stop-color="#90bfdf"/><stop offset=".6" stop-color="#90bfdf"/><stop offset=".7" stop-color="#90bfe0"/><stop offset=".8" stop-color="#90bfe0"/><stop offset=".9" stop-color="#90c0e1"/><stop offset="1" stop-color="#90c0e1"/><stop offset="1"/></linearGradient><linearGradient id="xd1cd" x1="-.62" x2="13.68" y1="-3.05" y2="23.19" gradientUnits="userSpaceOnUse"><stop offset="0" stop-color="#8fbddd"/><stop offset=".1" stop-color="#8fbddd"/><stop offset=".2" stop-color="#8fbede"/><stop offset=".3" stop-color="#8fbede"/><stop offset=".4" stop-color="#8fbedf"/><stop offset=".5" stop-color="#90bfdf"/><stop offset=".6" stop-color="#90bfdf"/><stop offset=".7" stop-color="#90bfe0"/><stop offset=".8" stop-color="#90bfe0"/><stop offset=".9" stop-color="#90c0e1"/><stop offset="1" stop-color="#90c0e1"/></linearGradient><linearGradient id="xd1cg" x1="0" x2="0" y1="0" y2="329.79" gradientUnits="userSpaceOnUse"><stop offset="0"/><stop offset="0" stop-color="#eef8fe"/><stop offset=".1" stop-color="#ebf7fe"/><stop offset=".2" stop-color="#e8f5fe"/><stop offset=".3" stop-color="#e4f4fe"/><stop offset=".4" stop-color="#e1f2fe"/><stop offset=".5" stop-color="#def1fe"/><stop offset=".6" stop-color="#dbf0fe"/><stop offset=".7" stop-color="#d8eefe"/><stop offset=".8" stop-color="#d4edfe"/><stop offset=".9" stop-color="#d1ebfe"/><stop offset="1" stop-color="#ceeafe"/><stop offset="1"/></linearGradient><linearGradient id="xd1ch" x1="13.6" x2="1.24" y1="-1.01" y2="21.79" gradientUnits="userSpaceOnUse"><stop offset="0" stop-color="#eef8fe"/><stop offset=".1" stop-color="#ebf7fe"/><stop offset=".2" stop-color="#e8f5fe"/><stop offset=".3" stop-color="#e4f4fe"/><stop offset=".4" stop-color="#e1f2fe"/><stop offset=".5" stop-color="#def1fe"/><stop offset=".6" stop-color="#dbf0fe"/><stop offset=".7" stop-color="#d8eefe"/><stop offset=".8" stop-color="#d4edfe"/><stop offset=".9" stop-color="#d1ebfe"/><stop offset="1" stop-color="#ceeafe"/></linearGradient><linearGradient id="xd1ck" x1="2.97" x2="2.97" y1="3.24" y2="333.02" gradientUnits="userSpaceOnUse"><stop offset="0"/><stop offset="0" stop-color="#c1e5ff"/><stop offset=".1" stop-color="#c5e6ff"/><stop offset=".2" stop-color="#c8e8ff"/><stop offset=".3" stop-color="#cce9ff"/><stop offset=".4" stop-color="#cfebff"/><stop offset=".5" stop-color="#d3edff"/><stop offset=".6" stop-color="#d7eeff"/><stop offset=".7" stop-color="#daefff"/><stop offset=".8" stop-color="#def1ff"/><stop offset=".9" stop-color="#e1f2ff"/><stop offset="1" stop-color="#e5f4ff"/><stop offset="1"/></linearGradient><linearGradient id="xd1cl" x1="15.99" x2="10.67" y1="21.1" y2=".75" gradientUnits="userSpaceOnUse"><stop offset="0" stop-color="#c1e5ff"/><stop offset=".1" stop-color="#c5e6ff"/><stop offset=".2" stop-color="#c8e8ff"/><stop offset=".3" stop-color="#cce9ff"/><stop offset=".4" stop-color="#cfebff"/><stop offset=".5" stop-color="#d3edff"/><stop offset=".6" stop-color="#d7eeff"/><stop offset=".7" stop-color="#daefff"/><stop offset=".8" stop-color="#def1ff"/><stop offset=".9" stop-color="#e1f2ff"/><stop offset="1" stop-color="#e5f4ff"/></linearGradient><linearGradient id="xd1co" x1="2.97" x2="2.97" y1="3.24" y2="333.02" gradientUnits="userSpaceOnUse"><stop offset="0"/><stop offset="0" stop-color="#90c0e1"/><stop offset=".1" stop-color="#90c0e1"/><stop offset=".2" stop-color="#90c0e1"/><stop offset=".3" stop-color="#90c0e1"/><stop offset=".4" stop-color="#90c0e1"/><stop offset=".5" stop-color="#90c0e1"/><stop offset=".6" stop-color="#90c0e1"/><stop offset=".7" stop-color="#90c0e1"/><stop offset=".8" stop-color="#90c0e1"/><stop offset=".9" stop-color="#90c0e1"/><stop offset="1" stop-color="#90c0e1"/><stop offset="1"/></linearGradient><linearGradient id="xd1cp" x1="-10.57" x2="37.97" y1="5.16" y2="20.22" gradientUnits="userSpaceOnUse"><stop offset="0" stop-color="#90c0e1"/><stop offset=".1" stop-color="#90c0e1"/><stop offset=".2" stop-color="#90c0e1"/><stop offset=".3" stop-color="#90c0e1"/><stop offset=".4" stop-color="#90c0e1"/><stop offset=".5" stop-color="#90c0e1"/><stop offset=".6" stop-color="#90c0e1"/><stop offset=".7" stop-color="#90c0e1"/><stop offset=".8" stop-color="#90c0e1"/><stop offset=".9" stop-color="#90c0e1"/><stop offset="1" stop-color="#90c0e1"/></linearGradient><clipPath id="xd1ca"><path d="M12.405 23.191C18.809 23.191 24 18 24 11.595 24 5.191 18.809 0 12.405 0 6 0 .809 5.191.809 11.595.809 18 6 23.191 12.405 23.191z"/></clipPath><clipPath id="xd1cb"><path d="M-4.187 27.7h32.21V-4.51h-32.21z"/></clipPath><clipPath id="xd1ce"><path d="M11.595 23.191C18 23.191 23.191 18 23.191 11.595 23.191 5.191 17.999 0 11.595 0S0 5.191 0 11.595C0 18 5.191 23.191 11.595 23.191z"/></clipPath><clipPath id="xd1cf"><path d="M-4.187 27.7h32.21V-4.51h-32.21z"/></clipPath><clipPath id="xd1ci"><path d="M11.46 20.225a8.494 8.494 0 1 0 0-16.989 8.494 8.494 0 0 0 0 16.989z"/></clipPath><clipPath id="xd1cj"><path d="M-4.187 27.7h32.21V-4.51h-32.21z"/></clipPath><clipPath id="xd1cm"><path d="M3.776 11.73a8.494 8.494 0 0 1 8.09-8.484 8.494 8.494 0 0 0-8.899 8.484 8.494 8.494 0 0 0 8.898 8.485 8.494 8.494 0 0 1-8.089-8.485z"/></clipPath><clipPath id="xd1cn"><path d="M-4.187 27.7h32.21V-4.51h-32.21z"/></clipPath><clipPath id="xd1cq"><path d="M11.99 16.267c.818 0 1.569-.19 2.25-.569a4.178 4.178 0 0 0 1.6-1.54l-1.522-.883a2.291 2.291 0 0 1-.94.927 2.846 2.846 0 0 1-1.388.339c-.87 0-1.571-.273-2.104-.819-.533-.545-.8-1.249-.8-2.11 0-.87.267-1.577.8-2.123.533-.546 1.234-.818 2.104-.818.512 0 .972.113 1.381.338.41.226.725.54.947.94l1.521-.882a4.166 4.166 0 0 0-1.605-1.541 4.563 4.563 0 0 0-2.244-.57c-1.347 0-2.46.446-3.338 1.337-.878.891-1.317 1.997-1.317 3.319 0 1.313.439 2.417 1.317 3.312.878.896 1.99 1.343 3.338 1.343z"/></clipPath><clipPath id="xd1cr"><path d="M-4.187 27.7h32.21V-4.51h-32.21z"/></clipPath></defs><g><g><g><g><g/><g clip-path="url(#xd1ca)"><g/><g clip-path="url(#xd1cb)"><g><path fill="url(#xd1cd)" d="M-38.652-.322h62.81V23.19h-62.81z"/></g></g></g></g><g><g/><g clip-path="url(#xd1ce)"><g/><g clip-path="url(#xd1cf)"><g><path fill="url(#xd1ch)" d="M-38.652-.322h62.81V23.19h-62.81z"/></g></g></g></g><g><g/><g clip-path="url(#xd1ci)"><g/><g clip-path="url(#xd1cj)"><g><path fill="url(#xd1cl)" d="M-38.652-.322h62.81V23.19h-62.81z"/></g></g></g></g><g><g/><g clip-path="url(#xd1cm)"><g/><g clip-path="url(#xd1cn)"><g><path fill="url(#xd1cp)" d="M-38.652-.322h62.81V23.19h-62.81z"/></g></g></g></g><g><g/><g clip-path="url(#xd1cq)"><g/><g clip-path="url(#xd1cr)"><path fill="#8ebddd" d="M5.724 5.346H17.45v12.532H5.724z"/></g></g></g></g></g></g></svg>